<svg width="121" height="49" viewBox="0 0 121 49" fill="none" xmlns="http://www.w3.org/2000/svg">
<g clip-path="url(#clip0_16847_26630)">
<path d="M1.30273 7.47117V41.3247C1.30273 44.5665 3.93062 47.1943 7.17234 47.1943H29.4833C32.725 47.1943 35.3529 44.5665 35.3529 41.3247V14.2916C35.3529 12.6587 34.6708 11.0981 33.4712 9.98672L26.1132 3.16626C25.0259 2.15924 23.6016 1.60156 22.1212 1.60156H7.17234C3.93062 1.60156 1.30273 4.22945 1.30273 7.47117Z" stroke="white" stroke-width="2.40722" stroke-miterlimit="10"/>
<path d="M24.226 26.4722C26.7455 26.4722 28.7917 28.5183 28.7917 31.0379V46.3237C28.7917 46.4962 28.6512 46.6367 28.4787 46.6367H19.9692C19.7967 46.6367 19.6562 46.4962 19.6562 46.3237V31.0379C19.6562 28.5183 21.7024 26.4722 24.2219 26.4722H24.226Z" fill="white"/>
<path d="M24.2219 17.4249C25.4135 17.4249 26.3804 18.3918 26.3804 19.5834C26.3804 20.775 25.4135 21.7419 24.2219 21.7419C23.0304 21.7419 22.0635 20.775 22.0635 19.5834C22.0635 18.3918 23.0304 17.4249 24.2219 17.4249ZM24.2219 15.0177C21.6984 15.0177 19.6562 17.0638 19.6562 19.5834C19.6562 22.103 21.7024 24.1491 24.2219 24.1491C26.7415 24.1491 28.7876 22.103 28.7876 19.5834C28.7876 17.0638 26.7415 15.0177 24.2219 15.0177Z" fill="white"/>
<path d="M11.2981 7.57946C12.4897 7.57946 13.4566 8.54636 13.4566 9.73794V33.4491C13.4566 34.6406 12.4897 35.6075 11.2981 35.6075C10.1065 35.6075 9.13964 34.6406 9.13964 33.4491V9.73794C9.13964 8.54636 10.1065 7.57946 11.2981 7.57946ZM11.2981 5.17224C8.77455 5.17224 6.73242 7.21838 6.73242 9.73794V33.4491C6.73242 35.9726 8.77856 38.0148 11.2981 38.0148C13.8217 38.0148 15.8638 35.9686 15.8638 33.4491V9.73794C15.8638 7.21437 13.8177 5.17224 11.2981 5.17224Z" fill="white"/>
<path d="M46.0697 20.787C45.8611 20.787 45.7327 20.6827 45.6846 20.4741L42.2904 8.70278C42.2101 8.44601 42.2984 8.31763 42.5552 8.31763H44.7217C44.9303 8.31763 45.0587 8.41392 45.1068 8.60649L46.0216 12.5543C46.0858 12.8593 46.174 13.2444 46.2864 13.7098C46.3987 14.1752 46.5151 14.6607 46.6354 15.1662C46.7558 15.6717 46.8721 16.1531 46.9845 16.6105C47.0968 17.0679 47.1851 17.441 47.2493 17.7299H47.2974C47.3776 17.3768 47.4659 16.9916 47.5622 16.5744C47.6585 16.1571 47.7628 15.7359 47.8751 15.3106C47.9875 14.8853 48.0958 14.4721 48.2001 14.0709C48.3044 13.6697 48.3967 13.3006 48.4769 12.9636L49.6324 8.775C49.6805 8.58242 49.8089 8.48613 50.0176 8.48613H52.2563C52.4649 8.48613 52.5933 8.58242 52.6414 8.775L53.821 12.9636C53.9012 13.3006 53.9935 13.6697 54.0978 14.0709C54.2021 14.4721 54.3064 14.8853 54.4107 15.3106C54.515 15.7359 54.6154 16.1571 54.7116 16.5744C54.8079 16.9916 54.8962 17.3768 54.9764 17.7299H55.0486C55.1128 17.441 55.1971 17.0679 55.3014 16.6105C55.4057 16.1531 55.5181 15.6717 55.6384 15.1662C55.7588 14.6607 55.8751 14.1752 55.9875 13.7098C56.0998 13.2444 56.1961 12.8593 56.2763 12.5543L57.167 8.60649C57.2151 8.41392 57.3516 8.31763 57.5762 8.31763H59.7187C59.9915 8.31763 60.0878 8.44601 60.0075 8.70278L56.6133 20.4741C56.5652 20.6827 56.4368 20.787 56.2282 20.787H53.821C53.6123 20.787 53.484 20.6827 53.4358 20.4741L52.0878 15.5874C51.9112 14.9455 51.7427 14.2875 51.5823 13.6135C51.4218 12.9395 51.2934 12.3537 51.1971 11.8562H51.1008C50.9885 12.3537 50.8521 12.9395 50.6916 13.6135C50.5311 14.2875 50.3626 14.9455 50.1861 15.5874L48.8621 20.4741C48.8139 20.6827 48.6856 20.787 48.4769 20.787H46.0697Z" fill="white"/>
<path d="M64.8908 5.04382C64.8908 5.49317 64.7463 5.8703 64.4575 6.17521C64.1686 6.48013 63.7915 6.63259 63.3261 6.63259C62.8607 6.63259 62.4996 6.48013 62.1947 6.17521C61.8898 5.8703 61.7373 5.49317 61.7373 5.04382C61.7373 4.59447 61.8898 4.20129 62.1947 3.91243C62.4996 3.62356 62.8767 3.47913 63.3261 3.47913C63.7754 3.47913 64.1686 3.62356 64.4575 3.91243C64.7463 4.20129 64.8908 4.57842 64.8908 5.04382ZM62.2669 20.787C62.0262 20.787 61.9058 20.6667 61.9058 20.426V8.65465C61.9058 8.42998 62.0262 8.31764 62.2669 8.31764H64.3612C64.5858 8.31764 64.6982 8.42998 64.6982 8.65465V20.426C64.6982 20.6667 64.5858 20.787 64.3612 20.787H62.2669Z" fill="white"/>
<path d="M74.7835 5.79001C74.4946 5.74187 74.1335 5.71779 73.7002 5.71779C73.0583 5.71779 72.5729 5.91438 72.2439 6.30756C71.9149 6.70074 71.7504 7.24237 71.7504 7.93244V8.4861H74.5187C74.7594 8.4861 74.8798 8.60646 74.8798 8.84718V10.5804C74.8798 10.8211 74.7594 10.9415 74.5187 10.9415H71.7504V20.4259C71.7504 20.6666 71.63 20.787 71.3893 20.787H69.3191C69.0784 20.787 68.958 20.6666 68.958 20.4259V7.93244C68.958 7.16213 69.0703 6.48409 69.295 5.89833C69.5197 5.31258 69.8286 4.82712 70.2218 4.44197C70.615 4.05681 71.0723 3.76794 71.5939 3.57537C72.1155 3.38279 72.6731 3.2865 73.2669 3.2865C73.8607 3.2865 74.3662 3.3186 74.7353 3.38279C74.96 3.39884 75.0723 3.52722 75.0723 3.76794V5.42893C75.0723 5.66965 74.9761 5.79001 74.7835 5.79001Z" fill="white"/>
<path d="M79.8165 5.04382C79.8165 5.49317 79.6721 5.8703 79.3832 6.17521C79.0944 6.48013 78.7172 6.63259 78.2518 6.63259C77.7865 6.63259 77.4254 6.48013 77.1205 6.17521C76.8155 5.8703 76.6631 5.49317 76.6631 5.04382C76.6631 4.59447 76.8155 4.20129 77.1205 3.91243C77.4254 3.62356 77.8025 3.47913 78.2518 3.47913C78.7012 3.47913 79.0944 3.62356 79.3832 3.91243C79.6721 4.20129 79.8165 4.57842 79.8165 5.04382ZM77.1927 20.787C76.9519 20.787 76.8316 20.6667 76.8316 20.426V8.65465C76.8316 8.42998 76.9519 8.31764 77.1927 8.31764H79.287C79.5116 8.31764 79.624 8.42998 79.624 8.65465V20.426C79.624 20.6667 79.5116 20.787 79.287 20.787H77.1927Z" fill="white"/>
<path d="M82.9939 20.7871C82.7532 20.7871 82.6328 20.6667 82.6328 20.426V9.40092C82.6328 9.20835 82.7211 9.06391 82.8976 8.96763C83.6037 8.66271 84.362 8.43001 85.1724 8.26953C85.9829 8.10905 86.8214 8.02881 87.688 8.02881C88.5546 8.02881 89.2808 8.12911 89.9628 8.32971C90.6448 8.53031 91.2306 8.84726 91.7201 9.28056C92.2095 9.71386 92.5907 10.2715 92.8635 10.9536C93.1363 11.6356 93.2727 12.4581 93.2727 13.421V20.426C93.2727 20.6667 93.1604 20.7871 92.9357 20.7871H90.8414C90.6007 20.7871 90.4804 20.6667 90.4804 20.426V13.4691C90.4804 12.3458 90.2356 11.5754 89.7462 11.1582C89.2567 10.7409 88.5706 10.5323 87.688 10.5323C87.2707 10.5323 86.8575 10.5564 86.4483 10.6045C86.039 10.6527 85.698 10.7169 85.4252 10.7971V20.426C85.4252 20.6667 85.3048 20.7871 85.0641 20.7871H82.9939Z" fill="white"/>
<path d="M99.1701 5.04382C99.1701 5.49317 99.0256 5.8703 98.7368 6.17521C98.4479 6.48013 98.0708 6.63259 97.6054 6.63259C97.14 6.63259 96.7789 6.48013 96.474 6.17521C96.1691 5.8703 96.0166 5.49317 96.0166 5.04382C96.0166 4.59447 96.1691 4.20129 96.474 3.91243C96.7789 3.62356 97.156 3.47913 97.6054 3.47913C98.0547 3.47913 98.4479 3.62356 98.7368 3.91243C99.0256 4.20129 99.1701 4.57842 99.1701 5.04382ZM96.5462 20.787C96.3055 20.787 96.1851 20.6667 96.1851 20.426V8.65465C96.1851 8.42998 96.3055 8.31764 96.5462 8.31764H98.6405C98.8651 8.31764 98.9775 8.42998 98.9775 8.65465V20.426C98.9775 20.6667 98.8651 20.787 98.6405 20.787H96.5462Z" fill="white"/>
<path d="M105.217 17.9826C105.546 18.3437 106.015 18.5243 106.625 18.5243C106.737 18.5243 106.882 18.5243 107.058 18.5122C107.235 18.5042 107.419 18.4922 107.612 18.4761C107.868 18.4761 107.997 18.5885 107.997 18.8131V20.6426C107.997 20.7389 107.973 20.8232 107.925 20.8954C107.877 20.9676 107.788 21.0117 107.66 21.0278C107.451 21.0438 107.231 21.0559 106.998 21.0639C106.765 21.0719 106.561 21.0759 106.384 21.0759C105.758 21.0759 105.172 20.9917 104.627 20.8232C104.081 20.6547 103.612 20.3939 103.219 20.0408C102.825 19.6878 102.512 19.2304 102.28 18.6687C102.047 18.107 101.931 17.425 101.931 16.6226V5.62156C101.931 5.39688 102.051 5.28455 102.292 5.28455H104.121C104.33 5.28455 104.45 5.38886 104.482 5.59748L104.699 8.48615H107.275C107.515 8.48615 107.636 8.59849 107.636 8.82316V10.5804C107.636 10.8051 107.515 10.9174 107.275 10.9174H104.723V16.43C104.723 17.104 104.888 17.6216 105.217 17.9826Z" fill="white"/>
<path d="M117.604 8.65464C117.604 8.42996 117.725 8.31763 117.966 8.31763H120.036C120.276 8.31763 120.397 8.42996 120.397 8.65464V19.9927C120.397 21.8542 119.964 23.2544 119.097 24.1933C118.23 25.1321 116.874 25.6015 115.029 25.6015C114.002 25.6015 113.115 25.4771 112.369 25.2284C111.623 24.9796 110.936 24.5985 110.311 24.0849C110.134 23.9565 110.11 23.7961 110.238 23.6035L111.273 22.1351C111.402 21.9265 111.554 21.8863 111.731 22.0147C112.196 22.3357 112.694 22.6005 113.223 22.8091C113.753 23.0177 114.347 23.122 115.005 23.122C115.422 23.122 115.799 23.0739 116.136 22.9776C116.473 22.8813 116.754 22.7128 116.979 22.4721C117.203 22.2314 117.372 21.9104 117.484 21.5092C117.596 21.108 117.645 20.6025 117.629 19.9927C117.243 20.121 116.83 20.2253 116.389 20.3056C115.948 20.3858 115.502 20.426 115.053 20.426C114.427 20.426 113.805 20.3257 113.187 20.125C112.569 19.9244 112.02 19.6195 111.538 19.2103C111.057 18.8011 110.664 18.2915 110.359 17.6817C110.054 17.0719 109.901 16.3497 109.901 15.5152V8.65464C109.901 8.42996 110.022 8.31763 110.262 8.31763H112.357C112.581 8.31763 112.694 8.42996 112.694 8.65464V15.3949C112.694 15.8603 112.77 16.2534 112.922 16.5744C113.075 16.8954 113.275 17.1521 113.524 17.3447C113.773 17.5373 114.062 17.6777 114.391 17.766C114.72 17.8542 115.069 17.8984 115.438 17.8984C115.855 17.9144 116.252 17.8743 116.63 17.778C117.007 17.6817 117.332 17.5614 117.604 17.4169V8.65464Z" fill="white"/>
<path d="M58.1071 42.3678V35.1261C58.1071 34.2194 57.8664 33.4932 57.393 32.9636C56.9035 32.418 56.1493 32.1411 55.1422 32.1411C54.2476 32.1411 53.4452 32.3698 52.7591 32.8232L52.4462 33.0278L52.5625 33.3809C52.6508 33.6457 52.723 33.9305 52.7751 34.2274C52.8273 34.5203 52.8514 34.8412 52.8514 35.1783V42.3718H51.0299V35.1301C51.0299 34.1191 50.7812 33.3568 50.2877 32.8633C49.7942 32.3698 49.0801 32.1211 48.1653 32.1211C47.724 32.1211 47.3308 32.1492 46.9978 32.1973C46.6608 32.2495 46.3519 32.3217 46.0871 32.41L45.7541 32.5183V42.3718H43.9326V31.4832C44.5906 31.2023 45.2606 30.9857 45.9507 30.8252C46.6407 30.6647 47.3629 30.5845 48.0931 30.5845C48.7591 30.5845 49.3649 30.6727 49.8905 30.8493C50.4161 31.0258 50.8815 31.2705 51.2867 31.5875L51.5515 31.7961L51.8363 31.6236C52.4141 31.2745 52.9677 31.0098 53.4853 30.8372C53.9868 30.6687 54.5725 30.5845 55.2225 30.5845C55.9206 30.5845 56.5665 30.6848 57.1483 30.8814C57.714 31.0739 58.2034 31.3668 58.6086 31.748C59.0139 32.1291 59.3348 32.6146 59.5635 33.1883C59.7962 33.77 59.9126 34.4561 59.9126 35.2224V42.3678H58.1152H58.1071Z" fill="white" stroke="white" stroke-width="0.300903" stroke-miterlimit="10"/>
<path d="M68.378 42.6567C67.5997 42.6567 66.8895 42.5524 66.2677 42.3437C65.6578 42.1391 65.1323 41.8462 64.703 41.4651C64.2777 41.088 63.9447 40.6346 63.72 40.109C63.4913 39.5794 63.375 38.9656 63.375 38.2795V35.0539C63.375 34.3678 63.4913 33.7419 63.724 33.1963C63.9527 32.6547 64.2817 32.1853 64.707 31.8041C65.1363 31.4149 65.6659 31.114 66.2757 30.9014C66.8976 30.6888 67.6037 30.5804 68.382 30.5804C69.1604 30.5804 69.8665 30.6888 70.4883 30.9014C71.0982 31.11 71.6237 31.4149 72.057 31.8041C72.4823 32.1853 72.8153 32.6547 73.044 33.1963C73.2727 33.7459 73.3931 34.3678 73.3931 35.0539V38.2795C73.3931 38.9616 73.2767 39.5794 73.048 40.109C72.8193 40.6346 72.4903 41.092 72.0651 41.4651C71.6358 41.8462 71.1102 42.1391 70.5004 42.3437C69.8785 42.5524 69.1684 42.6567 68.39 42.6567H68.378ZM68.378 32.113C67.391 32.113 66.6127 32.3658 66.0671 32.8673C65.5054 33.3768 65.2245 34.115 65.2245 35.0539V38.2795C65.2245 39.1903 65.5094 39.9044 66.0751 40.4019C66.6207 40.8793 67.3951 41.1241 68.382 41.1241C69.369 41.1241 70.1433 40.8793 70.6889 40.4019C71.2546 39.9084 71.5395 39.1943 71.5395 38.2795V35.0539C71.5395 34.115 71.2546 33.3768 70.697 32.8673C70.1473 32.3658 69.373 32.113 68.386 32.113H68.378Z" fill="white" stroke="white" stroke-width="0.300903" stroke-miterlimit="10"/>
<path d="M81.5951 42.6567C80.8408 42.6567 80.0384 42.5804 79.2119 42.436C78.3975 42.2916 77.6352 42.087 76.9531 41.8302V26.1271H78.7746V31.3628L79.4526 31.0699C79.7936 30.9215 80.1708 30.8011 80.58 30.7128C80.9852 30.6246 81.4145 30.5804 81.8598 30.5804C82.5539 30.5804 83.1999 30.6928 83.7856 30.9094C84.3634 31.1261 84.8729 31.439 85.2982 31.8322C85.7194 32.2254 86.0524 32.7068 86.2891 33.2685C86.5258 33.8302 86.6462 34.4801 86.6462 35.1983V37.8462C86.6462 38.6928 86.5178 39.427 86.261 40.0288C86.0083 40.6226 85.6633 41.1201 85.23 41.5012C84.7967 41.8864 84.2631 42.1752 83.6532 42.3638C83.0193 42.5564 82.3252 42.6567 81.591 42.6567H81.5951ZM81.571 32.089C81.0615 32.089 80.588 32.1532 80.1587 32.2775C79.7295 32.4019 79.3403 32.5744 78.9993 32.7911L78.7746 32.9355V40.6186L79.0635 40.7469C79.3965 40.8954 79.7896 40.9957 80.239 41.0519C80.6562 41.104 81.0895 41.1281 81.5228 41.1281C82.5018 41.1281 83.2921 40.8833 83.8659 40.4019C84.4677 39.8964 84.7726 39.0498 84.7726 37.8743V35.2023C84.7726 34.1471 84.4797 33.3528 83.898 32.8392C83.3363 32.3417 82.5499 32.093 81.567 32.093L81.571 32.089Z" fill="white" stroke="white" stroke-width="0.300903" stroke-miterlimit="10"/>
<path d="M90.2194 42.3678V30.8693H92.0409V42.3718H90.2194V42.3678ZM91.1542 28.2133C90.8292 28.2133 90.5805 28.113 90.3638 27.8963C90.1472 27.6797 90.0469 27.4309 90.0469 27.106C90.0469 26.781 90.1432 26.5242 90.3518 26.3276C90.5644 26.127 90.8252 26.0267 91.1502 26.0267C91.4752 26.0267 91.744 26.123 91.9406 26.3196C92.1371 26.5162 92.2334 26.773 92.2334 27.11C92.2334 27.447 92.1331 27.6957 91.9325 27.9084C91.7359 28.117 91.4872 28.2133 91.1542 28.2133Z" fill="white" stroke="white" stroke-width="0.300903" stroke-miterlimit="10"/>
<path d="M99.5074 42.6567C98.3479 42.6567 97.4933 42.3116 96.8915 41.6015C96.2817 40.8753 95.9688 39.8242 95.9688 38.4721V26.1271H97.7902V38.3758C97.7902 39.2946 97.9507 39.9526 98.2757 40.3778C98.6287 40.8392 99.1623 41.0759 99.8644 41.0759C100.017 41.0759 100.173 41.0759 100.334 41.0639C100.438 41.0599 100.546 41.0518 100.655 41.0438V42.6085C100.314 42.6406 99.9206 42.6607 99.5034 42.6607L99.5074 42.6567Z" fill="white" stroke="white" stroke-width="0.300903" stroke-miterlimit="10"/>
<path d="M107.741 42.6567C107.12 42.6567 106.506 42.5684 105.92 42.3879C105.346 42.2153 104.833 41.9506 104.395 41.6055C103.962 41.2645 103.613 40.8312 103.348 40.3096C103.087 39.7961 102.955 39.1702 102.955 38.448V35.0298C102.955 34.2234 103.091 33.5333 103.364 32.9796C103.633 32.422 103.994 31.9646 104.432 31.6196C104.877 31.2665 105.394 31.0057 105.964 30.8372C106.55 30.6647 107.16 30.5804 107.766 30.5804C108.371 30.5804 108.977 30.6687 109.555 30.8372C110.117 31.0017 110.618 31.2625 111.047 31.6155C111.469 31.9606 111.818 32.418 112.082 32.9756C112.347 33.5333 112.48 34.2234 112.48 35.0298V37.3126H104.801V38.4721C104.801 39.3628 105.098 40.0488 105.683 40.5142C106.233 40.9516 106.959 41.1722 107.838 41.1722C108.652 41.1722 109.362 41.0519 109.948 40.8111C110.466 40.5985 110.955 40.3417 111.404 40.0488L112.243 41.1722C111.665 41.6216 111.015 41.9827 110.305 42.2434C109.567 42.5203 108.704 42.6567 107.741 42.6567ZM107.766 32.0649C106.951 32.0649 106.253 32.2896 105.695 32.7349C105.102 33.2083 104.801 33.9706 104.801 35.0017V36.113H110.73V35.0017C110.73 33.9666 110.421 33.2003 109.808 32.7269C109.234 32.2856 108.548 32.0609 107.766 32.0609V32.0649Z" fill="white" stroke="white" stroke-width="0.300903" stroke-miterlimit="10"/>
</g>
<defs>
<clipPath id="clip0_16847_26630">
<rect width="120.297" height="48" fill="white" transform="translate(0.09375 0.397949)"/>
</clipPath>
</defs>
</svg>
